<svg xmlns="http://www.w3.org/2000/svg" width="2228" height="430" viewBox="0 0 2228 430"><rect width="100%" height="100%" fill="#eef2f6"/><g><line x1="0" y1="-73.0" x2="9999" y2="-73.0" stroke="#98a2b3" stroke-dasharray="6 6"/><text x="8" y="-77.0" font-size="12" fill="#667085">cap-height</text><line x1="0" y1="76.0" x2="9999" y2="76.0" stroke="#98a2b3" stroke-dasharray="6 6"/><text x="8" y="72.0" font-size="12" fill="#667085">x-height</text><line x1="0" y1="295.0" x2="9999" y2="295.0" stroke="#98a2b3" stroke-dasharray="6 6"/><text x="8" y="291.0" font-size="12" fill="#667085">baseline</text></g><g><path d="M9.098445595854923 -0.1450777202072539H7.580310880829016L6.953367875647668 0.49740932642487046Q5.953367875647668 -0.1450777202072539 4.725388601036269 -0.1450777202072539Q3.134715025906736 -0.1450777202072539 1.9015544041450778 0.9326424870466321Q0.5595854922279793 2.1191709844559585 0.5595854922279793 3.963730569948187Q0.5595854922279793 5.772020725388601 1.8290155440414508 6.979274611398964Q3.062176165803109 8.150259067357513 4.740932642487047 8.150259067357513Q6.2642487046632125 8.150259067357513 7.471502590673575 7.124352331606218Q8.922279792746114 5.89119170984456 8.922279792746114 3.906735751295337Q8.922279792746114 2.3523316062176165 7.77720207253886 1.145077720207254ZM5.77720207253886 3.1658031088082903 6.937823834196892 2.010362694300518Q7.704663212435234 2.8082901554404147 7.704663212435234 3.9844559585492227Q7.704663212435234 5.274611398963731 6.849740932642487 6.145077720207254Q5.994818652849741 7.015544041450777 4.725388601036269 7.015544041450777Q3.440414507772021 7.015544041450777 2.61139896373057 6.145077720207254Q1.7772020725388602 5.27979274611399 1.7772020725388602 3.9533678756476687Q1.7772020725388602 2.6580310880829017 2.6373056994818653 1.83419689119171Q3.533678756476684 0.9844559585492229 4.683937823834197 0.9844559585492229Q5.466321243523316 0.9844559585492229 6.098445595854923 1.3419689119170986L4.217616580310881 3.1658031088082903Z" transform="translate(40.00,295.00) scale(46.0,-46.0)" fill="#d92d20" fill-opacity="0.18"/><path d="M11.38341968911917 5.046632124352332V2.150259067357513Q11.38341968911917 0.8963730569948187 12.373056994818652 0.8963730569948187Q13.362694300518134 0.8963730569948187 13.362694300518134 2.150259067357513V5.046632124352332H14.528497409326425V2.1243523316062176Q14.528497409326425 1.5181347150259068 14.378238341968913 1.077720207253886Q14.233160621761659 0.6839378238341969 13.875647668393782 0.3678756476683938Q13.28497409326425 -0.1450777202072539 12.373056994818652 -0.1450777202072539Q11.466321243523316 -0.1450777202072539 10.875647668393782 0.3678756476683938Q10.512953367875648 0.6839378238341969 10.362694300518134 1.077720207253886Q10.217616580310882 1.4300518134715026 10.217616580310882 2.1243523316062176V5.046632124352332Z" transform="translate(471.97,295.00) scale(46.0,-46.0)" fill="#d92d20" fill-opacity="0.18"/><path d="M19.72020725388601 5.046632124352332H20.891191709844563V0.0H19.72020725388601V0.5284974093264249Q19.0 -0.1450777202072539 18.17098445595855 -0.1450777202072539Q17.124352331606218 -0.1450777202072539 16.440414507772022 0.61139896373057Q15.761658031088084 1.383419689119171 15.761658031088084 2.538860103626943Q15.761658031088084 3.673575129533679 16.440414507772022 4.430051813471502Q17.11917098445596 5.186528497409326 18.139896373056995 5.186528497409326Q19.020725388601036 5.186528497409326 19.72020725388601 4.461139896373057ZM16.95336787564767 2.538860103626943Q16.95336787564767 1.8134715025906736 17.3419689119171 1.3575129533678758Q17.740932642487046 0.8963730569948187 18.34715025906736 0.8963730569948187Q18.99481865284974 0.8963730569948187 19.39378238341969 1.3419689119170986Q19.792746113989637 1.8031088082901554 19.792746113989637 2.5129533678756477Q19.792746113989637 3.22279792746114 19.39378238341969 3.683937823834197Q18.99481865284974 4.134715025906736 18.357512953367877 4.134715025906736Q17.756476683937827 4.134715025906736 17.352331606217618 3.678756476683938Q16.95336787564767 3.217616580310881 16.95336787564767 2.538860103626943Z" transform="translate(735.46,295.00) scale(46.0,-46.0)" fill="#d92d20" fill-opacity="0.18"/><path d="M22.362694300518136 5.046632124352332H23.533678756476686V4.580310880829016Q24.145077720207254 5.186528497409326 24.9119170984456 5.186528497409326Q25.79274611398964 5.186528497409326 26.284974093264253 4.632124352331607Q26.709844559585495 4.160621761658032 26.709844559585495 3.0932642487046635V0.0H25.538860103626945V2.818652849740933Q25.538860103626945 3.5647668393782386 25.33160621761658 3.8497409326424874Q25.12953367875648 4.139896373056995 24.595854922279795 4.139896373056995Q24.01554404145078 4.139896373056995 23.772020725388604 3.756476683937824Q23.533678756476686 3.378238341968912 23.533678756476686 2.435233160621762V0.0H22.362694300518136Z" transform="translate(1025.33,295.00) scale(46.0,-46.0)" fill="#d92d20" fill-opacity="0.18"/><path d="M30.611398963730572 6.865284974093265V0.0H29.40414507772021V6.865284974093265H27.56476683937824V8.0H32.44559585492228V6.865284974093265Z" transform="translate(1290.35,295.00) scale(46.0,-46.0)" fill="#d92d20" fill-opacity="0.18"/><path d="M33.30051813471503 5.046632124352332H34.46632124352332V4.595854922279793Q34.787564766839374 4.932642487046632 35.03626943005181 5.05699481865285Q35.29015544041451 5.186528497409326 35.637305699481864 5.186528497409326Q36.09844559585492 5.186528497409326 36.601036269430054 4.886010362694301L36.067357512953365 3.818652849740933Q35.73575129533678 4.05699481865285 35.41968911917098 4.05699481865285Q34.46632124352332 4.05699481865285 34.46632124352332 2.616580310880829V0.0H33.30051813471503Z" transform="translate(1523.57,295.00) scale(46.0,-46.0)" fill="#d92d20" fill-opacity="0.18"/><path d="M38.43523316062176 5.046632124352332V0.0H37.26943005181347V5.046632124352332ZM37.09326424870466 7.145077720207254Q37.09326424870466 7.45077720207254 37.3160621761658 7.673575129533679Q37.538860103626945 7.896373056994819 37.84974093264248 7.896373056994819Q38.16580310880829 7.896373056994819 38.38860103626943 7.673575129533679Q38.611398963730565 7.455958549222798 38.611398963730565 7.139896373056995Q38.611398963730565 6.823834196891192 38.38860103626943 6.601036269430052Q38.170984455958546 6.378238341968912 37.854922279792746 6.378238341968912Q37.538860103626945 6.378238341968912 37.3160621761658 6.601036269430052Q37.09326424870466 6.823834196891192 37.09326424870466 7.145077720207254Z" transform="translate(1704.39,295.00) scale(46.0,-46.0)" fill="#d92d20" fill-opacity="0.18"/><path d="M39.67357512953368 2.5595854922279795Q39.67357512953368 3.6528497409326426 40.4559585492228 4.419689119170984Q41.23834196891192 5.186528497409326 42.362694300518136 5.186528497409326Q43.49222797927461 5.186528497409326 44.27979274611399 4.414507772020726Q45.05699481865285 3.6424870466321244 45.05699481865285 2.518134715025907Q45.05699481865285 1.383419689119171 44.27461139896373 0.616580310880829Q43.487046632124354 -0.1450777202072539 42.3419689119171 -0.1450777202072539Q41.20725388601036 -0.1450777202072539 40.44041450777202 0.6321243523316062Q39.67357512953368 1.3989637305699483 39.67357512953368 2.5595854922279795ZM40.865284974093264 2.538860103626943Q40.865284974093264 1.7823834196891193 41.26943005181347 1.3419689119170986Q41.6839378238342 0.8963730569948187 42.362694300518136 0.8963730569948187Q43.046632124352335 0.8963730569948187 43.4559585492228 1.3367875647668395Q43.865284974093264 1.7772020725388602 43.865284974093264 2.5129533678756477Q43.865284974093264 3.2487046632124352 43.4559585492228 3.689119170984456Q43.04145077720207 4.134715025906736 42.362694300518136 4.134715025906736Q41.69430051813472 4.134715025906736 41.27979274611399 3.689119170984456Q40.865284974093264 3.243523316062176 40.865284974093264 2.538860103626943Z" transform="translate(1824.78,295.00) scale(46.0,-46.0)" fill="#d92d20" fill-opacity="0.18"/><path d="M49.22279792746114 4.186528497409326 48.259067357512954 3.673575129533679Q48.031088082901555 4.139896373056995 47.69430051813471 4.139896373056995Q47.53367875647668 4.139896373056995 47.41968911917098 4.033678756476684Q47.30569948186528 3.9274611398963732 47.30569948186528 3.761658031088083Q47.30569948186528 3.4715025906735755 47.979274611398964 3.1865284974093266Q48.90673575129534 2.7875647668393784 49.2279792746114 2.4507772020725387Q49.549222797927456 2.1139896373056994 49.549222797927456 1.5440414507772022Q49.549222797927456 0.8134715025906736 49.01036269430052 0.3212435233160622Q48.487046632124354 -0.1450777202072539 47.7461139896373 -0.1450777202072539Q46.476683937823836 -0.1450777202072539 45.94818652849741 1.0932642487046633L46.94300518134715 1.5544041450777202Q47.15025906735751 1.1917098445595855 47.259067357512954 1.0932642487046633Q47.47150259067357 0.8963730569948187 47.76683937823834 0.8963730569948187Q48.35751295336787 0.8963730569948187 48.35751295336787 1.4352331606217616Q48.35751295336787 1.7461139896373057 47.901554404145074 2.0155440414507773Q47.725388601036265 2.1036269430051813 47.549222797927456 2.186528497409326Q47.373056994818654 2.2694300518134716 47.19170984455958 2.3575129533678756Q46.68393782383419 2.606217616580311 46.476683937823836 2.854922279792746Q46.21243523316062 3.1709844559585494 46.21243523316062 3.66839378238342Q46.21243523316062 4.3264248704663215 46.663212435233156 4.756476683937824Q47.12435233160622 5.186528497409326 47.78238341968912 5.186528497409326Q48.751295336787564 5.186528497409326 49.22279792746114 4.186528497409326Z" transform="translate(2115.33,295.00) scale(46.0,-46.0)" fill="#d92d20" fill-opacity="0.18"/></g><g><path d="M 505.93 -109.25 L 505.73 334.73 L 8.33 334.73" fill="none" stroke="#111111" stroke-width="5.5" stroke-linecap="round" stroke-linejoin="round"/><path d="M 768.44 32.14 L 768.24 334.70 L 439.02 334.70" fill="none" stroke="#111111" stroke-width="5.5" stroke-linecap="round" stroke-linejoin="round"/><path d="M 1057.97 334.69 L 1413.65 334.69 L 1413.85 25.79" fill="none" stroke="#111111" stroke-width="5.5" stroke-linecap="round" stroke-linejoin="round"/><path d="M 1257.40 328.12 L 1588.25 328.12 L 1588.45 25.79" fill="none" stroke="#111111" stroke-width="5.5" stroke-linecap="round" stroke-linejoin="round"/><path d="M 1789.75 -102.40 L 1789.75 327.82 L 1490.52 328.02" fill="none" stroke="#111111" stroke-width="5.5" stroke-linecap="round" stroke-linejoin="round"/><path d="M 1977.43 25.79 L 1977.43 327.92 L 1727.62 328.12" fill="none" stroke="#111111" stroke-width="5.5" stroke-linecap="round" stroke-linejoin="round"/><path d="M 2164.46 -97.68 L 2164.46 327.82 L 1978.12 328.02" fill="none" stroke="#111111" stroke-width="5.5" stroke-linecap="round" stroke-linejoin="round"/><path d="M 2315.41 334.69 L 2671.70 334.49 L 2671.90 25.79" fill="none" stroke="#111111" stroke-width="5.5" stroke-linecap="round" stroke-linejoin="round"/><path d="M 2477.99 334.69 L 2740.15 334.43 L 2740.15 25.79" fill="none" stroke="#111111" stroke-width="5.5" stroke-linecap="round" stroke-linejoin="round"/></g></svg>