<svg xmlns="http://www.w3.org/2000/svg" width="1200" height="520" viewBox="0 0 1200 520"><rect width="100%" height="100%" fill="#eef2f6"/><rect x="24" y="24" width="1152" height="472" rx="24" fill="#fff" stroke="#d0d5dd"/><text x="48" y="70" font-family="-apple-system,BlinkMacSystemFont,Helvetica,Arial,sans-serif" font-size="22" font-weight="700" fill="#111">QuanTrios centerline checkpoint</text><text x="48" y="100" font-family="-apple-system,BlinkMacSystemFont,Helvetica,Arial,sans-serif" font-size="14" fill="#667085">This is a readable web checkpoint. The broken auto-connected skeleton has been removed. Futura-derived exact outline data is not embedded here.</text><line x1="48" y1="350" x2="1152" y2="350" stroke="#98a2b3" stroke-dasharray="5 6"/><text x="54" y="344" font-family="ui-monospace,SFMono-Regular,Menlo,Consolas,monospace" font-size="12" fill="#667085">baseline</text><line x1="48" y1="242" x2="1152" y2="242" stroke="#98a2b3" stroke-dasharray="5 6"/><text x="54" y="236" font-family="ui-monospace,SFMono-Regular,Menlo,Consolas,monospace" font-size="12" fill="#667085">x-height</text><line x1="48" y1="168" x2="1152" y2="168" stroke="#98a2b3" stroke-dasharray="5 6"/><text x="54" y="162" font-family="ui-monospace,SFMono-Regular,Menlo,Consolas,monospace" font-size="12" fill="#667085">cap-height</text><g fill="none" stroke="#111" stroke-width="16" stroke-linecap="butt" stroke-linejoin="round" transform="translate(72 0)"><ellipse cx="88" cy="259" rx="58" ry="88"/><path d="M105 303 L136 364"/><path d="M205 242 V314 C205 362 302 362 302 314 V242"/><ellipse cx="391" cy="296" rx="50" ry="58"/><path d="M441 242 V350"/><path d="M512 350 V242 C547 236 612 246 612 302 V350"/><path d="M676 168 H814 M745 168 V350"/><path d="M858 350 V242 C883 236 916 244 944 270"/><path d="M990 350 V242"/><circle cx="990" cy="206" r="13" fill="#111" stroke="none"/><ellipse cx="1072" cy="296" rx="50" ry="58"/><path d="M1150 270 C1122 232 1055 244 1052 286 C1048 326 1140 314 1140 350"/></g><text x="48" y="448" font-family="ui-monospace,SFMono-Regular,Menlo,Consolas,monospace" font-size="14" fill="#d92d20">Status: not final. Next update must replace this safe checkpoint with per-glyph contour-pair centerline reconstruction.</text></svg>